<?xml version="1.0" encoding="UTF-8"?>
<!DOCTYPE svg PUBLIC "-//W3C//DTD SVG 1.1//EN" "http://www.w3.org/Graphics/SVG/1.1/DTD/svg11.dtd">
<!-- Creator: CorelDRAW -->
<svg xmlns="http://www.w3.org/2000/svg" xml:space="preserve" width="61.4905mm" height="9.0703mm" style="shape-rendering:geometricPrecision; text-rendering:geometricPrecision; image-rendering:optimizeQuality; fill-rule:evenodd; clip-rule:evenodd"
viewBox="0 0 5.35897 0.790488"
 xmlns:xlink="http://www.w3.org/1999/xlink">
 <defs>
  <style type="text/css">
   <![CDATA[
    .str0 {stroke:white;stroke-width:0.0871513;stroke-linecap:round;stroke-linejoin:round}
    .fil2 {fill:none}
    .fil1 {fill:#DA251D}
    .fil0 {fill:white}
   ]]>
  </style>
 </defs>
 <g id="Слой_x0020_1">
  <metadata id="CorelCorpID_0Corel-Layer"/>
  <rect class="fil0" y="0.154946" width="5.35897" height="0.420322" rx="0.105078" ry="0.105078"/>
  <path class="fil1" d="M0.105078 0.154946l1.03859 0c0.0577987,0 0.105078,0.047297 0.105078,0.105078l0 0.210165c0,0.0577813 -0.047297,0.105078 -0.105078,0.105078l-1.03859 0c-0.0577813,0 -0.105078,-0.0472796 -0.105078,-0.105078l0 -0.210165c0,-0.0577987 0.0472796,-0.105078 0.105078,-0.105078z"/>
  <g>
   <path class="fil2 str0" d="M1.05355 0.0435756c0.19419,0 0.351673,0.157482 0.351673,0.351673 0,0.19419 -0.157482,0.351673 -0.351673,0.351673 -0.19419,0 -0.351673,-0.157482 -0.351673,-0.351673 0,-0.19419 0.157482,-0.351673 0.351673,-0.351673z"/>
   <path id="1" class="fil1" d="M1.05355 0.0435756c0.19419,0 0.351673,0.157482 0.351673,0.351673 0,0.19419 -0.157482,0.351673 -0.351673,0.351673 -0.19419,0 -0.351673,-0.157482 -0.351673,-0.351673 0,-0.19419 0.157482,-0.351673 0.351673,-0.351673z"/>
  </g>
  <path class="fil0" d="M1.01166 0.483742c-0.00286728,0.0120007 -0.0249253,0.056169 -0.0312089,0.0685968 -0.00568226,0.0112338 -0.0102403,0.0233304 -0.0157221,0.0341807 -0.00418326,0.00827937 -0.0149116,0.0312873 0.00447958,0.0312873l0.00297186 0c0.00917703,0 0.13742,-0.130343 0.151382,-0.144305 0.0229905,-0.0229905 0.04999,-0.0484735 0.0744708,-0.0729892 0.00677165,-0.00677165 0.0133603,-0.0151905 0.00315488,-0.0236267 -0.00562126,-0.00465388 -0.026677,-0.00262325 -0.0346165,-0.00262325 -0.0248294,0 -0.0496501,0 -0.0744795,0 0.00305901,-0.0111641 0.0161578,-0.0350958 0.0213346,-0.0464342 0.0066235,-0.014502 0.0143102,-0.030102 0.0214044,-0.0463732 0.00560383,-0.0128374 0.0147983,-0.0346775 0.0214566,-0.0463209 0.0109985,-0.019243 0.0178486,-0.0366384 -0.0126195,-0.0366384l-0.152123 0c-0.026189,0 -0.0208727,0.0121837 -0.0281237,0.0336927 -0.00524651,0.0155914 -0.00825322,0.0326992 -0.0136392,0.0481772 -0.0107109,0.0307644 -0.017683,0.0646401 -0.0276792,0.0966943 -0.00370393,0.0118613 -0.0273655,0.0900795 -0.0254743,0.0972957 0.00382594,0.0145891 0.0398543,0.00938619 0.0524651,0.00938619 0.0208553,0 0.0417106,0 0.0625659,0z"/>
 </g>
</svg>
