<?xml version="1.0" encoding="UTF-8"?>
<!DOCTYPE svg PUBLIC "-//W3C//DTD SVG 1.1//EN" "http://www.w3.org/Graphics/SVG/1.1/DTD/svg11.dtd">
<!-- Creator: CorelDRAW -->
<svg xmlns="http://www.w3.org/2000/svg" xml:space="preserve" width="3.1533mm" height="53.53mm" style="shape-rendering:geometricPrecision; text-rendering:geometricPrecision; image-rendering:optimizeQuality; fill-rule:evenodd; clip-rule:evenodd"
viewBox="0 0 0.022094 0.375065"
 xmlns:xlink="http://www.w3.org/1999/xlink">
 <defs>
  <style type="text/css">
   <![CDATA[
    .fil0 {fill:#C2C1C1}
   ]]>
  </style>
 </defs>
 <g id="Слой_x0020_1">
  <metadata id="CorelCorpID_0Corel-Layer"/>
  <path class="fil0" d="M-0 0.375065c0.00368058,0 0.00736326,0 0.0110445,0 0.00368128,0 0.00736606,0 0.0110494,0 -0.000241028,-0.016427 -0.000481355,-0.0329311 -0.000723084,-0.0493575 -0.000241729,-0.0164284 -0.000483457,-0.0329311 -0.000726587,-0.0493967 -0.00320133,0 -0.00640475,0 -0.00960398,0 -0.00319922,0 -0.00640055,0 -0.00959767,0 -0.000241028,0.0164656 -0.000482756,0.0329683 -0.000722383,0.0493967 -0.000239627,0.0164263 -0.000479954,0.0329304 -0.000720281,0.0493575zm0.00475399 -0.325743c0.00209078,0 0.00418506,0 0.00627723,0 0.00209218,0 0.00418716,0 0.00628074,0 -0.000240327,-0.0164284 -0.000481355,-0.0328562 -0.000723784,-0.0493217 -0.00185395,0 -0.0037072,0 -0.00556116,0 -0.00185185,0 -0.003703,0 -0.00555485,0 -0.000238926,0.0164656 -0.000479253,0.0328933 -0.000718179,0.0493217zm-0.0013789 0.0943288c0.00255251,0 0.00510643,0 0.00765824,0 0.00255461,0 0.00510853,0 0.00766455,0 -0.000351032,-0.0239669 -0.000704866,-0.047933 -0.0010559,-0.071937 -0.00220498,0 -0.00440787,0 -0.00661075,0 -0.00220008,0 -0.00440296,0 -0.00660374,0 -0.000351732,0.024004 -0.000700662,0.0479701 -0.00105239,0.071937zm-0.00157929 0.108431c0.00307941,0 0.00616233,0 0.00924454,0 0.00307941,0 0.00616373,0 0.00924804,0 -0.000428105,-0.0292926 -0.000859012,-0.058623 -0.00128992,-0.0879527 -0.00265551,0 -0.00530962,0 -0.00796233,0 -0.00265201,0 -0.00530542,0 -0.00795672,0 -0.000428105,0.0293297 -0.00085691,0.0586602 -0.00128361,0.0879527z"/>
 </g>
</svg>
