<?xml version="1.0" encoding="UTF-8"?>
<!DOCTYPE svg PUBLIC "-//W3C//DTD SVG 1.1//EN" "http://www.w3.org/Graphics/SVG/1.1/DTD/svg11.dtd">
<!-- Creator: CorelDRAW -->
<svg xmlns="http://www.w3.org/2000/svg" xml:space="preserve" width="8.5047mm" height="11.5581mm" style="shape-rendering:geometricPrecision; text-rendering:geometricPrecision; image-rendering:optimizeQuality; fill-rule:evenodd; clip-rule:evenodd"
viewBox="0 0 0.185358 0.251906"
 xmlns:xlink="http://www.w3.org/1999/xlink">
 <defs>
  <style type="text/css">
   <![CDATA[
    .fil2 {fill:#E77844}
    .fil0 {fill:#FFFCC8}
    .fil1 {fill:#465D45}
   ]]>
  </style>
 </defs>
 <g id="Слой_x0020_1">
  <metadata id="CorelCorpID_0Corel-Layer"/>
  <g id="_170365648">
   <path id="_170365936" class="fil0" d="M0.124653 0.140907l-0.00568625 -0.0280891c-0.00118999,0.000270255 -0.00130987,-0.00101128 -0.00274178,-0.00101999l-0.00793983 -3.70511e-005c-0.00276358,-1.52563e-005 -0.0058933,-0.00164115 -0.00737317,-0.00294011 0.00334986,0.000296409 0.00479485,0.00239742 0.00896419,0.00241704l0.00264588 1.30769e-005c0.00811419,3.92306e-005 0.00932162,-0.000941534 0.014609,-0.00163243l-0.00754535 0.0031755 0.000950252 0.0037378c0.00392088,0.00455728 0.00603715,0.0277295 0.0125146,0.0371339 0.00517844,0.00752137 0.0200643,0.0170304 0.0327532,0.0170915 0.0111567,5.44869e-005 0.0191031,-0.00854573 0.0191554,-0.0194954 6.75638e-005,-0.013443 -0.00309922,-0.0271606 -0.0118476,-0.0377943 -0.00717484,-0.00872008 -0.0162262,-0.0131706 -0.0318465,-0.0132469l-0.00826022 8.71791e-006 -0.00128807 0.00365062c0.000146025,-0.0016564 0.000538331,-0.00187871 0.000547049,-0.00370293l4.35895e-006 -0.000529613c1.30769e-005,-0.00292486 -0.00103961,-0.00354601 -0.00156051,-0.00583228 -0.00223832,-0.00151474 -0.00358524,-0.00340216 -0.00640766,-0.00471857 -0.00186345,-0.000869611 -0.00671061,-0.00203127 -0.00785047,-0.00276358 -0.0045028,-2.17948e-005 -0.0082406,-0.000370511 -0.0119719,0.000679997 -0.0038969,0.00109846 -0.00676727,0.00333678 -0.00923008,0.0039819l-0.000244101 -0.000470767 0.00714432 -0.00320165c-0.00594561,-0.0260949 -0.0438794,-0.0383348 -0.066522,-0.038446 -0.0202539,-9.80764e-005 -0.0355233,0.00993623 -0.0356257,0.0310641 -0.000113333,0.0232986 0.0190508,0.0387424 0.0426959,0.0388579 0.0109889,5.44869e-005 0.0199466,-0.00129025 0.0305279,-0.00481882 0.00805752,-0.00268511 0.0116711,-0.00660381 0.0177867,-0.00977931l-0.000568843 -0.0047578 2.17948e-006 -0.000529613c1.08974e-005,-0.00219691 0.000344357,-0.00331062 0.00160845,-0.00422818 -0.000451152,0.00189396 -0.00107012,0.00248242 -0.00108102,0.00475998 -1.52563e-005,0.00292486 0.00103743,0.00354601 0.00156922,0.00580395l-0.00159538 -0.000509997c-0.0084106,0.0124296 -0.0366893,0.0318487 -0.0367721,0.04906 -5.88459e-005,0.0121724 0.00723368,0.018057 0.0171721,0.0230371 0.0114205,0.0057233 0.0256088,0.00735137 0.0382716,0.0074124 0.0132011,6.53843e-005 0.0170021,-0.0121746 0.0170653,-0.0253299l-0.00202909 -0.0180112z"/>
   <path id="_170365672" class="fil1" d="M0.143272 0.251906l0.00429357 -0.0023255c0.000985123,-0.0472314 -0.0154416,-0.0921047 -0.02691,-0.137237l-0.00186345 -0.000202691c0.00971828,0.048003 0.0247196,0.0904221 0.0244799,0.139765z"/>
   <path id="_170365336" class="fil0" d="M0.116449 0.0863334c0.00113987,0.000732304 0.00598702,0.00189396 0.00785047,0.00276358 0.00282242,0.0013164 0.00416934,0.00320383 0.00640766,0.00471857l0.0020923 0.00530485 0.0121767 5.88459e-005c0.0202887,0.000100256 0.0402702,-0.00649484 0.0403813,-0.0294513 4.5769e-005,-0.00920175 -0.00502587,-0.0212019 -0.0141906,-0.0212477 -0.016649,-8.06406e-005 -0.0299111,0.0141731 -0.0407584,0.0248155 -0.00253037,0.0024846 -0.00824496,0.0101411 -0.0102457,0.0114684 0.00050128,-0.00184602 0.012933,-0.018434 0.0152476,-0.0218449 0.00490818,-0.00723368 0.00929329,-0.0164659 0.00935213,-0.0283332 9.80764e-005,-0.0204522 -0.0158557,-0.0344924 -0.0353053,-0.0345883 -0.0105421,-5.0128e-005 -0.0170086,0.0134822 -0.0170609,0.0242728 -8.49996e-005,0.0172985 0.00260012,0.0337034 0.00652317,0.0504418 0.00108538,0.00462921 0.00283986,0.00804445 0.0037596,0.012083l-1.96153e-005 -0.000533972 0.0137895 7.19227e-005z"/>
   <ellipse id="_170365312" class="fil2" transform="matrix(0.0604266 0.000920706 0.000337019 0.0735998 0.111808 0.0984239)" rx="0.387221" ry="0.204642"/>
  </g>
 </g>
</svg>
