<?xml version="1.0" encoding="UTF-8"?>
<!DOCTYPE svg PUBLIC "-//W3C//DTD SVG 1.1//EN" "http://www.w3.org/Graphics/SVG/1.1/DTD/svg11.dtd">
<!-- Creator: CorelDRAW -->
<svg xmlns="http://www.w3.org/2000/svg" xml:space="preserve" width="79.7691mm" height="167.514mm" style="shape-rendering:geometricPrecision; text-rendering:geometricPrecision; image-rendering:optimizeQuality; fill-rule:evenodd; clip-rule:evenodd"
viewBox="0 0 12.0763 25.3601"
 xmlns:xlink="http://www.w3.org/1999/xlink">
 <defs>
  <style type="text/css">
   <![CDATA[
    .str0 {stroke:#C2C1C1;stroke-width:0.0302781;stroke-opacity:0.760784}
    .fil2 {fill:#44916C}
    .fil9 {fill:#798992}
    .fil1 {fill:white}
    .fil4 {fill:#AE8200}
    .fil6 {fill:#EBB228}
    .fil5 {fill:#F7B600}
    .fil8 {fill:#FFD34D}
    .fil7 {fill:#FFE38E}
    .fil3 {fill:#7BC4A0}
    .fil0 {fill:url(#id6);fill-opacity:0.760784}
   ]]>
  </style>
   <mask id="id0">
  <linearGradient id="id1" gradientUnits="userSpaceOnUse" x1="6.47856" y1="19.4055" x2="3.79187" y2="2.73763">
   <stop offset="0" style="stop-opacity:1; stop-color:white"/>
   <stop offset="1" style="stop-opacity:0; stop-color:white"/>
  </linearGradient>
    <rect style="fill:url(#id1)" x="0.0375297" width="10.1954" height="22.1431"/>
   </mask>
   <mask id="id2">
  <linearGradient id="id3" gradientUnits="userSpaceOnUse" x1="6.37848" y1="19.5255" x2="8.05277" y2="2.61763">
   <stop offset="0" style="stop-opacity:1; stop-color:white"/>
   <stop offset="1" style="stop-opacity:0; stop-color:white"/>
  </linearGradient>
    <rect style="fill:url(#id3)" x="2.35496" width="9.72134" height="22.1431"/>
   </mask>
   <mask id="id4">
  <linearGradient id="id5" gradientUnits="userSpaceOnUse" x1="6.12929" y1="20.6326" x2="5.93188" y2="1.51053">
   <stop offset="0" style="stop-opacity:1; stop-color:white"/>
   <stop offset="1" style="stop-opacity:0; stop-color:white"/>
  </linearGradient>
    <rect style="fill:url(#id5)" x="-0.0151391" width="12.0914" height="22.1431"/>
   </mask>
  <linearGradient id="id6" gradientUnits="userSpaceOnUse" x1="6.24965" y1="17.0181" x2="7.54958" y2="4.1812">
   <stop offset="0" style="stop-color:#B6DDC7"/>
   <stop offset="1" style="stop-color:#ACD0E0"/>
  </linearGradient>
 </defs>
 <g id="Слой_x0020_1">
  <metadata id="CorelCorpID_0Corel-Layer"/>
  <polygon class="fil0 str0" points="0.0526688,25.3449 12.0612,25.3449 12.0612,0.0151391 0.0526688,0.0151391 "/>
  <polygon class="fil1" style="mask:url(#id0)" points="1.96441,22.1262 5.88508,22.128 10.2177,0.0151391 0.0526688,0.0151391 0.0526688,12.0051 "/>
  <polygon class="fil1" style="mask:url(#id2)" points="6.5466,22.1262 10.4673,22.128 12.0612,13.9932 12.0612,0.0151391 2.3701,0.0151391 "/>
  <polygon class="fil1" style="mask:url(#id4)" points="4.05262,22.1263 7.85699,22.128 12.0612,0.0151391 -0,0.0151391 "/>
  <g id="_170361664">
   <path id="_170361616" class="fil2" d="M0.0526688 22.0321l2.82872 -0.607091c-0.456322,-0.684497 -1.2286,-1.19347 -2.31676,-1.52696 -0.183122,0.0716532 -0.354769,0.183455 -0.511958,0.325323l0 1.80872z"/>
   <path id="_170361976" class="fil3" d="M0.532789 21.9291c1.26759,-0.272034 1.08099,-0.231991 2.3486,-0.50404 -0.456322,-0.684497 -1.2286,-1.19347 -2.31676,-1.52696 -0.242588,0.449146 0.094937,1.03936 -0.0318374,2.031z"/>
  </g>
  <g id="_170361448">
   <path id="_170361520" class="fil2" d="M1.43203 22.7598c1.26759,-0.272034 2.5352,-0.544083 3.80281,-0.816132 -0.456322,-0.684497 -1.2286,-1.19347 -2.31676,-1.52696 -0.784945,0.307156 -1.35928,1.35145 -1.48605,2.34309z"/>
   <path id="_170361472" class="fil3" d="M2.88625 22.4477c1.26759,-0.272034 1.08099,-0.231991 2.3486,-0.50404 -0.456322,-0.684497 -1.2286,-1.19347 -2.31676,-1.52696 -0.242588,0.449146 0.094937,1.03936 -0.0318374,2.031z"/>
  </g>
  <g id="_170361928">
   <path id="_170361760" class="fil2" d="M2.93266 22.9441c1.26759,-0.272034 2.5352,-0.544083 3.80281,-0.816132 -0.456322,-0.684497 -1.2286,-1.19347 -2.31676,-1.52696 -0.784945,0.307156 -1.35928,1.35145 -1.48605,2.34309z"/>
   <path id="_170361832" class="fil3" d="M4.38688 22.632c1.26759,-0.272034 1.08099,-0.231991 2.3486,-0.50404 -0.456322,-0.684497 -1.2286,-1.19347 -2.31676,-1.52696 -0.242588,0.449146 0.094937,1.03936 -0.0318374,2.031z"/>
  </g>
  <g id="_170361544">
   <path id="_170361712" class="fil2" d="M10.0433 22.1459c-0.962102,-0.234731 -1.92424,-0.469462 -2.88635,-0.704209 0.346351,-0.59062 0.932506,-1.02979 1.75843,-1.31754 0.595783,0.26504 1.0317,1.1661 1.12792,2.02175z"/>
   <path id="_170361400" class="fil3" d="M8.93958 21.8766c-0.962102,-0.234716 -0.820476,-0.200169 -1.78259,-0.434915 0.346351,-0.59062 0.932506,-1.02979 1.75843,-1.31754 0.184121,0.38756 -0.0720619,0.896823 0.0241619,1.75245z"/>
  </g>
  <g id="_170361256">
   <path id="_170361376" class="fil2" d="M12.0612 22.338l-2.37768 -0.580099c0.401397,-0.684497 1.08073,-1.19347 2.03793,-1.52696 0.119129,0.0529867 0.232733,0.12794 0.339751,0.220758l0 1.8863z"/>
   <path id="_170361328" class="fil3" d="M11.7494 22.2619c-1.11504,-0.272034 -0.950884,-0.231991 -2.06594,-0.50404 0.401397,-0.684497 1.08073,-1.19347 2.03793,-1.52696 0.213385,0.449146 -0.0835071,1.03936 0.0280073,2.031z"/>
  </g>
  <g id="_170360824">
   <path id="_170361184" class="fil2" d="M11.3356 22.4602c-0.962102,-0.234731 -1.92424,-0.469462 -2.88635,-0.704209 0.346351,-0.59062 0.932506,-1.02979 1.75843,-1.31754 0.595783,0.26504 1.0317,1.1661 1.12792,2.02175z"/>
   <path id="_170360872" class="fil3" d="M10.2318 22.1909c-0.962102,-0.234716 -0.820476,-0.200169 -1.78259,-0.434915 0.346351,-0.59062 0.932506,-1.02979 1.75843,-1.31754 0.184121,0.38756 -0.0720619,0.896823 0.0241619,1.75245z"/>
  </g>
  <path class="fil2" d="M0.0526688 25.3449l12.0085 0 0 -3.55683c-3.9326,-1.05338 -7.93544,-1.05338 -12.0085,0l0 3.55683z"/>
  <g id="_170359984">
   <path id="_170360704" class="fil4" d="M2.89108 4.41298l-0.667133 0.385168 -0.385168 -0.667133c0.299269,0.228236 0.678987,0.330016 1.0523,0.281965z"/>
   <path id="_170361232" class="fil4" d="M4.12745 2.80964l0.385168 0.667133 -0.667133 0.385168c0.228236,-0.299269 0.330016,-0.678987 0.281965,-1.0523z"/>
   <path id="_170360680" class="fil5" d="M2.52412 1.57327l0.667133 -0.385168 0.385168 0.667133c-0.299269,-0.228236 -0.678987,-0.330016 -1.0523,-0.281965z"/>
   <path id="_170360944" class="fil5" d="M0.902576 2.50947l0.667133 -0.385168c-0.228267,0.299269 -0.329986,0.679002 -0.281965,1.0523l-0.385168 -0.667133z"/>
   <path id="_170360632" class="fil4" d="M3.84134 3.86729l-0.199397 0.74416 -0.74416 -0.199397c0.180049,-0.0240408 0.358463,-0.0828712 0.525507,-0.179322 0.167044,-0.0964358 0.307232,-0.221545 0.41805,-0.365442z"/>
   <path id="_170360992" class="fil6" d="M3.58177 1.85938l0.74416 0.199397 -0.199397 0.74416c-0.0240408,-0.180034 -0.0828712,-0.358463 -0.179322,-0.525507 -0.0964358,-0.167029 -0.221545,-0.307232 -0.365442,-0.41805z"/>
   <path id="_170360248" class="fil7" d="M1.57386 2.11895l0.199397 -0.74416 0.74416 0.199397c-0.180034,0.0240408 -0.358463,0.0828712 -0.525507,0.179322 -0.167029,0.0964358 -0.307232,0.221545 -0.41805,0.365442z"/>
   <path id="_170360056" class="fil6" d="M1.08927 3.92747l0.199397 -0.74416c0.0240408,0.180049 0.0828712,0.358463 0.179322,0.525507 0.0964358,0.167044 0.221545,0.307232 0.365442,0.41805l-0.74416 -0.199397z"/>
   <circle id="_170360224" class="fil8" transform="matrix(0.906014 -0.523088 0.523088 0.906014 2.7076 2.99312)" r="1.36821"/>
  </g>
  <path class="fil1" d="M4.24422 2.50762c0.471824,-0.140324 0.79147,0.200532 0.690962,0.638505 0.400216,-0.0888966 0.512821,0.296544 0.389679,0.566791l-2.32035 0c-0.202364,-0.336859 -0.0847485,-0.664332 0.265706,-0.832482 -0.0349561,-0.755 0.75332,-0.714791 0.974002,-0.372814z"/>
  <path class="fil1" d="M9.37465 1.09514c0.286053,-0.0850815 0.479848,0.121567 0.418913,0.387106 0.242649,-0.0538951 0.310911,0.179807 0.23626,0.343642l-1.40678 0c-0.122687,-0.204241 -0.051382,-0.402775 0.16108,-0.504721 -0.0211795,-0.457745 0.45673,-0.433356 0.590529,-0.226026z"/>
  <path class="fil1" d="M8.56436 3.40945c0.61566,-0.183092 1.03277,0.261664 0.901622,0.833178 0.522237,-0.115995 0.669162,0.38697 0.508491,0.739604l-3.0278 0c-0.264055,-0.439563 -0.110591,-0.866863 0.346715,-1.08629 -0.045614,-0.985205 0.982994,-0.932733 1.27097,-0.486494z"/>
  <path class="fil1" d="M5.10442 4.5763c0.286053,-0.0850815 0.479848,0.121567 0.418913,0.387106 0.242649,-0.0538951 0.310911,0.179807 0.23626,0.343642l-1.40678 0c-0.122687,-0.204241 -0.051382,-0.402775 0.16108,-0.504721 -0.0211795,-0.457745 0.45673,-0.433356 0.590529,-0.226026z"/>
  <path class="fil9" d="M10.9175 3.37572c0.10452,0.0612224 0.363201,-0.262178 0.67275,-0.138719 -0.29883,-0.152723 -0.387,-0.125715 -0.617265,-0.0187724 -0.09798,-0.144775 -0.180442,-0.268688 -0.59928,-0.174886 0.486191,-0.0192872 0.293607,0.185832 0.543795,0.332378z"/>
  <path class="fil9" d="M9.77762 3.59332c0.140385,0.0618885 0.418989,-0.382564 0.826411,-0.272109 -0.398172,-0.148832 -0.505206,-0.102068 -0.77945,0.0659003 -0.144275,-0.167968 -0.266008,-0.311925 -0.779435,-0.133163 0.608969,-0.0947705 0.396386,0.191252 0.732473,0.339372z"/>
  <path class="fil9" d="M6.48397 2.45848c0.140385,0.0618885 0.418989,-0.382564 0.826411,-0.272109 -0.398172,-0.148832 -0.505206,-0.102068 -0.77945,0.0659003 -0.144275,-0.167968 -0.266008,-0.311925 -0.779435,-0.133163 0.608969,-0.0947705 0.396386,0.191252 0.732473,0.339372z"/>
 </g>
</svg>
